
<global>
ampeg_release=2.5
master-volume=10
</global>

<group>
group_label=RR1
seq_length=4
seq_position=1

<region>
hikey=B3
hivel=127
lokey=A#3
lovel=87
offset=1974
pitch_keycenter=A#3
sample=Trumpet_muted_staccatissimo_FF_A#3_RR1.opus
</region>

<region>
hikey=B4
hivel=127
lokey=A#4
lovel=87
offset=3387
pitch_keycenter=A#4
sample=Trumpet_muted_staccatissimo_FF_A#4_RR1.opus
</region>

<region>
hikey=B5
hivel=127
lokey=A#5
lovel=87
pitch_keycenter=A#5
sample=Trumpet_muted_staccatissimo_FF_A#5_RR1.opus
</region>

<region>
hivel=127
key=A4
lovel=87
offset=4215
sample=Trumpet_muted_staccatissimo_FF_A4_RR1.opus
</region>

<region>
hivel=127
key=A5
lovel=87
sample=Trumpet_muted_staccatissimo_FF_A5_RR1.opus
</region>

<region>
hikey=C#4
hivel=127
lokey=C4
lovel=87
offset=2875
sample=Trumpet_muted_staccatissimo_FF_C4_RR1.opus
</region>

<region>
hikey=C#5
hivel=127
lokey=C5
lovel=87
offset=502
pitch_keycenter=C5
sample=Trumpet_muted_staccatissimo_FF_C5_RR1.opus
</region>

<region>
hikey=F6
hivel=127
lokey=C6
lovel=87
pitch_keycenter=C6
sample=Trumpet_muted_staccatissimo_FF_C6_RR1.opus
</region>

<region>
hikey=D#4
hivel=127
lokey=D4
lovel=87
offset=3921
pitch_keycenter=D4
sample=Trumpet_muted_staccatissimo_FF_D4_RR1.opus
</region>

<region>
hikey=D#5
hivel=127
lokey=D5
lovel=87
offset=3255
pitch_keycenter=D5
sample=Trumpet_muted_staccatissimo_FF_D5_RR1.opus
</region>

<region>
hivel=127
key=E4
lovel=87
offset=3471
sample=Trumpet_muted_staccatissimo_FF_E4_RR1.opus
</region>

<region>
hivel=127
key=E5
lovel=87
offset=1582
sample=Trumpet_muted_staccatissimo_FF_E5_RR1.opus
</region>

<region>
hikey=F#4
hivel=127
lokey=F4
lovel=87
offset=4626
pitch_keycenter=F4
sample=Trumpet_muted_staccatissimo_FF_F4_RR1.opus
</region>

<region>
hikey=F#5
hivel=127
lokey=F5
lovel=87
offset=3735
pitch_keycenter=F5
sample=Trumpet_muted_staccatissimo_FF_F5_RR1.opus
</region>

<region>
hikey=A3
hivel=127
lokey=G#3
lovel=87
offset=1221
pitch_keycenter=G#3
sample=Trumpet_muted_staccatissimo_FF_G#3_RR1.opus
</region>

<region>
hikey=G#4
hivel=127
lokey=G4
lovel=87
offset=2817
pitch_keycenter=G4
sample=Trumpet_muted_staccatissimo_FF_G4_RR1.opus
</region>

<region>
hikey=G#5
hivel=127
lokey=G5
lovel=87
pitch_keycenter=G5
sample=Trumpet_muted_staccatissimo_FF_G5_RR1.opus
</region>

<region>
hikey=B3
hivel=86
lokey=A#3
lovel=43
offset=1662
pitch_keycenter=A#3
sample=Trumpet_muted_staccatissimo_MF_A#3_RR1.opus
</region>

<region>
hikey=B4
hivel=86
lokey=A#4
lovel=43
offset=4254
pitch_keycenter=A#4
sample=Trumpet_muted_staccatissimo_MF_A#4_RR1.opus
</region>

<region>
hikey=B5
hivel=86
lokey=A#5
lovel=43
offset=2687
pitch_keycenter=A#5
sample=Trumpet_muted_staccatissimo_MF_A#5_RR1.opus
</region>

<region>
hivel=86
key=A4
lovel=43
offset=2729
sample=Trumpet_muted_staccatissimo_MF_A4_RR1.opus
</region>

<region>
hivel=86
key=A5
lovel=43
offset=3006
sample=Trumpet_muted_staccatissimo_MF_A5_RR1.opus
</region>

<region>
hikey=C#4
hivel=86
lokey=C4
lovel=43
offset=3426
sample=Trumpet_muted_staccatissimo_MF_C4_RR1.opus
</region>

<region>
hikey=C#5
hivel=86
lokey=C5
lovel=43
offset=3492
pitch_keycenter=C5
sample=Trumpet_muted_staccatissimo_MF_C5_RR1.opus
</region>

<region>
hikey=F6
hivel=86
lokey=C6
lovel=43
offset=2839
pitch_keycenter=C6
sample=Trumpet_muted_staccatissimo_MF_C6_RR1.opus
</region>

<region>
hikey=D#4
hivel=86
lokey=D4
lovel=43
offset=2598
pitch_keycenter=D4
sample=Trumpet_muted_staccatissimo_MF_D4_RR1.opus
</region>

<region>
hikey=D#5
hivel=86
lokey=D5
lovel=43
offset=2598
pitch_keycenter=D5
sample=Trumpet_muted_staccatissimo_MF_D5_RR1.opus
</region>

<region>
hivel=86
key=E4
lovel=43
offset=2113
sample=Trumpet_muted_staccatissimo_MF_E4_RR1.opus
</region>

<region>
hivel=86
key=E5
lovel=43
offset=1531
sample=Trumpet_muted_staccatissimo_MF_E5_RR1.opus
</region>

<region>
hikey=F#4
hivel=86
lokey=F4
lovel=43
offset=2145
pitch_keycenter=F4
sample=Trumpet_muted_staccatissimo_MF_F4_RR1.opus
</region>

<region>
hikey=F#5
hivel=86
lokey=F5
lovel=43
offset=3132
pitch_keycenter=F5
sample=Trumpet_muted_staccatissimo_MF_F5_RR1.opus
</region>

<region>
hikey=A3
hivel=86
lokey=G#3
lovel=43
offset=498
pitch_keycenter=G#3
sample=Trumpet_muted_staccatissimo_MF_G#3_RR1.opus
</region>

<region>
hikey=G#4
hivel=86
lokey=G4
lovel=43
offset=1033
pitch_keycenter=G4
sample=Trumpet_muted_staccatissimo_MF_G4_RR1.opus
</region>

<region>
hikey=G#5
hivel=86
lokey=G5
lovel=43
offset=3463
pitch_keycenter=G5
sample=Trumpet_muted_staccatissimo_MF_G5_RR1.opus
</region>

<region>
hikey=B3
hivel=42
lokey=A#3
lovel=0
offset=2107
pitch_keycenter=A#3
sample=Trumpet_muted_staccatissimo_PP_A#3_RR1.opus
</region>

<region>
hikey=B4
hivel=42
lokey=A#4
lovel=0
pitch_keycenter=A#4
sample=Trumpet_muted_staccatissimo_PP_A#4_RR1.opus
</region>

<region>
hikey=B5
hivel=42
lokey=A#5
lovel=0
offset=570
pitch_keycenter=A#5
sample=Trumpet_muted_staccatissimo_PP_A#5_RR1.opus
</region>

<region>
hivel=42
key=A4
lovel=0
sample=Trumpet_muted_staccatissimo_PP_A4_RR1.opus
</region>

<region>
hivel=42
key=A5
lovel=0
sample=Trumpet_muted_staccatissimo_PP_A5_RR1.opus
</region>

<region>
hikey=C#4
hivel=42
lokey=C4
lovel=0
sample=Trumpet_muted_staccatissimo_PP_C4_RR1.opus
</region>

<region>
hikey=C#5
hivel=42
lokey=C5
lovel=0
pitch_keycenter=C5
sample=Trumpet_muted_staccatissimo_PP_C5_RR1.opus
</region>

<region>
hikey=F6
hivel=42
lokey=C6
lovel=0
offset=944
pitch_keycenter=C6
sample=Trumpet_muted_staccatissimo_PP_C6_RR1.opus
</region>

<region>
hikey=D#4
hivel=42
lokey=D4
lovel=0
offset=2981
pitch_keycenter=D4
sample=Trumpet_muted_staccatissimo_PP_D4_RR1.opus
</region>

<region>
hikey=D#5
hivel=42
lokey=D5
lovel=0
pitch_keycenter=D5
sample=Trumpet_muted_staccatissimo_PP_D5_RR1.opus
</region>

<region>
hivel=42
key=E4
lovel=0
sample=Trumpet_muted_staccatissimo_PP_E4_RR1.opus
</region>

<region>
hivel=42
key=E5
lovel=0
sample=Trumpet_muted_staccatissimo_PP_E5_RR1.opus
</region>

<region>
hikey=F#4
hivel=42
lokey=F4
lovel=0
offset=2268
pitch_keycenter=F4
sample=Trumpet_muted_staccatissimo_PP_F4_RR1.opus
</region>

<region>
hikey=F#5
hivel=42
lokey=F5
lovel=0
pitch_keycenter=F5
sample=Trumpet_muted_staccatissimo_PP_F5_RR1.opus
</region>

<region>
hikey=A3
hivel=42
lokey=G#3
lovel=0
offset=629
pitch_keycenter=G#3
sample=Trumpet_muted_staccatissimo_PP_G#3_RR1.opus
</region>

<region>
hikey=G#4
hivel=42
lokey=G4
lovel=0
pitch_keycenter=G4
sample=Trumpet_muted_staccatissimo_PP_G4_RR1.opus
</region>

<region>
hikey=G#5
hivel=42
lokey=G5
lovel=0
offset=3295
pitch_keycenter=G5
sample=Trumpet_muted_staccatissimo_PP_G5_RR1.opus
</region>
</group>

<group>
group_label=RR2
seq_length=4
seq_position=2

<region>
hikey=B3
hivel=127
lokey=A#3
lovel=87
offset=113
pitch_keycenter=A#3
sample=Trumpet_muted_staccatissimo_FF_A#3_RR2.opus
</region>

<region>
hikey=B4
hivel=127
lokey=A#4
lovel=87
offset=3529
pitch_keycenter=A#4
sample=Trumpet_muted_staccatissimo_FF_A#4_RR2.opus
</region>

<region>
hikey=B5
hivel=127
lokey=A#5
lovel=87
pitch_keycenter=A#5
sample=Trumpet_muted_staccatissimo_FF_A#5_RR2.opus
</region>

<region>
hivel=127
key=A4
lovel=87
offset=1367
sample=Trumpet_muted_staccatissimo_FF_A4_RR2.opus
</region>

<region>
hivel=127
key=A5
lovel=87
sample=Trumpet_muted_staccatissimo_FF_A5_RR2.opus
</region>

<region>
hikey=C#4
hivel=127
lokey=C4
lovel=87
offset=633
sample=Trumpet_muted_staccatissimo_FF_C4_RR2.opus
</region>

<region>
hikey=C#5
hivel=127
lokey=C5
lovel=87
offset=3304
pitch_keycenter=C5
sample=Trumpet_muted_staccatissimo_FF_C5_RR2.opus
</region>

<region>
hikey=F6
hivel=127
lokey=C6
lovel=87
offset=4338
pitch_keycenter=C6
sample=Trumpet_muted_staccatissimo_FF_C6_RR2.opus
</region>

<region>
hikey=D#4
hivel=127
lokey=D4
lovel=87
offset=1526
pitch_keycenter=D4
sample=Trumpet_muted_staccatissimo_FF_D4_RR2.opus
</region>

<region>
hikey=D#5
hivel=127
lokey=D5
lovel=87
offset=2963
pitch_keycenter=D5
sample=Trumpet_muted_staccatissimo_FF_D5_RR2.opus
</region>

<region>
hivel=127
key=E4
lovel=87
offset=535
sample=Trumpet_muted_staccatissimo_FF_E4_RR2.opus
</region>

<region>
hivel=127
key=E5
lovel=87
sample=Trumpet_muted_staccatissimo_FF_E5_RR2.opus
</region>

<region>
hikey=F#4
hivel=127
lokey=F4
lovel=87
offset=1765
pitch_keycenter=F4
sample=Trumpet_muted_staccatissimo_FF_F4_RR2.opus
</region>

<region>
hikey=F#5
hivel=127
lokey=F5
lovel=87
pitch_keycenter=F5
sample=Trumpet_muted_staccatissimo_FF_F5_RR2.opus
</region>

<region>
hikey=A3
hivel=127
lokey=G#3
lovel=87
offset=415
pitch_keycenter=G#3
sample=Trumpet_muted_staccatissimo_FF_G#3_RR2.opus
</region>

<region>
hikey=G#4
hivel=127
lokey=G4
lovel=87
offset=2678
pitch_keycenter=G4
sample=Trumpet_muted_staccatissimo_FF_G4_RR2.opus
</region>

<region>
hikey=G#5
hivel=127
lokey=G5
lovel=87
pitch_keycenter=G5
sample=Trumpet_muted_staccatissimo_FF_G5_RR2.opus
</region>

<region>
hikey=B3
hivel=86
lokey=A#3
lovel=43
offset=707
pitch_keycenter=A#3
sample=Trumpet_muted_staccatissimo_MF_A#3_RR2.opus
</region>

<region>
hikey=B4
hivel=86
lokey=A#4
lovel=43
offset=2303
pitch_keycenter=A#4
sample=Trumpet_muted_staccatissimo_MF_A#4_RR2.opus
</region>

<region>
hikey=B5
hivel=86
lokey=A#5
lovel=43
pitch_keycenter=A#5
sample=Trumpet_muted_staccatissimo_MF_A#5_RR2.opus
</region>

<region>
hivel=86
key=A4
lovel=43
offset=1919
sample=Trumpet_muted_staccatissimo_MF_A4_RR2.opus
</region>

<region>
hivel=86
key=A5
lovel=43
offset=3097
sample=Trumpet_muted_staccatissimo_MF_A5_RR2.opus
</region>

<region>
hikey=C#4
hivel=86
lokey=C4
lovel=43
offset=1448
sample=Trumpet_muted_staccatissimo_MF_C4_RR2.opus
</region>

<region>
hikey=C#5
hivel=86
lokey=C5
lovel=43
offset=3264
pitch_keycenter=C5
sample=Trumpet_muted_staccatissimo_MF_C5_RR2.opus
</region>

<region>
hikey=F6
hivel=86
lokey=C6
lovel=43
offset=2045
pitch_keycenter=C6
sample=Trumpet_muted_staccatissimo_MF_C6_RR2.opus
</region>

<region>
hikey=D#4
hivel=86
lokey=D4
lovel=43
offset=676
pitch_keycenter=D4
sample=Trumpet_muted_staccatissimo_MF_D4_RR2.opus
</region>

<region>
hikey=D#5
hivel=86
lokey=D5
lovel=43
offset=4088
pitch_keycenter=D5
sample=Trumpet_muted_staccatissimo_MF_D5_RR2.opus
</region>

<region>
hivel=86
key=E4
lovel=43
offset=1175
sample=Trumpet_muted_staccatissimo_MF_E4_RR2.opus
</region>

<region>
hivel=86
key=E5
lovel=43
offset=2271
sample=Trumpet_muted_staccatissimo_MF_E5_RR2.opus
</region>

<region>
hikey=F#4
hivel=86
lokey=F4
lovel=43
offset=517
pitch_keycenter=F4
sample=Trumpet_muted_staccatissimo_MF_F4_RR2.opus
</region>

<region>
hikey=F#5
hivel=86
lokey=F5
lovel=43
offset=3063
pitch_keycenter=F5
sample=Trumpet_muted_staccatissimo_MF_F5_RR2.opus
</region>

<region>
hikey=A3
hivel=86
lokey=G#3
lovel=43
pitch_keycenter=G#3
sample=Trumpet_muted_staccatissimo_MF_G#3_RR2.opus
</region>

<region>
hikey=G#4
hivel=86
lokey=G4
lovel=43
pitch_keycenter=G4
sample=Trumpet_muted_staccatissimo_MF_G4_RR2.opus
</region>

<region>
hikey=G#5
hivel=86
lokey=G5
lovel=43
offset=3034
pitch_keycenter=G5
sample=Trumpet_muted_staccatissimo_MF_G5_RR2.opus
</region>

<region>
hikey=B3
hivel=42
lokey=A#3
lovel=0
offset=963
pitch_keycenter=A#3
sample=Trumpet_muted_staccatissimo_PP_A#3_RR2.opus
</region>

<region>
hikey=B4
hivel=42
lokey=A#4
lovel=0
pitch_keycenter=A#4
sample=Trumpet_muted_staccatissimo_PP_A#4_RR2.opus
</region>

<region>
hikey=B5
hivel=42
lokey=A#5
lovel=0
offset=3120
pitch_keycenter=A#5
sample=Trumpet_muted_staccatissimo_PP_A#5_RR2.opus
</region>

<region>
hivel=42
key=A4
lovel=0
sample=Trumpet_muted_staccatissimo_PP_A4_RR2.opus
</region>

<region>
hivel=42
key=A5
lovel=0
offset=3434
sample=Trumpet_muted_staccatissimo_PP_A5_RR2.opus
</region>

<region>
hikey=C#4
hivel=42
lokey=C4
lovel=0
offset=2646
sample=Trumpet_muted_staccatissimo_PP_C4_RR2.opus
</region>

<region>
hikey=C#5
hivel=42
lokey=C5
lovel=0
pitch_keycenter=C5
sample=Trumpet_muted_staccatissimo_PP_C5_RR2.opus
</region>

<region>
hikey=F6
hivel=42
lokey=C6
lovel=0
pitch_keycenter=C6
sample=Trumpet_muted_staccatissimo_PP_C6_RR2.opus
</region>

<region>
hikey=D#4
hivel=42
lokey=D4
lovel=0
offset=1181
pitch_keycenter=D4
sample=Trumpet_muted_staccatissimo_PP_D4_RR2.opus
</region>

<region>
hikey=D#5
hivel=42
lokey=D5
lovel=0
pitch_keycenter=D5
sample=Trumpet_muted_staccatissimo_PP_D5_RR2.opus
</region>

<region>
hivel=42
key=E4
lovel=0
offset=796
sample=Trumpet_muted_staccatissimo_PP_E4_RR2.opus
</region>

<region>
hivel=42
key=E5
lovel=0
sample=Trumpet_muted_staccatissimo_PP_E5_RR2.opus
</region>

<region>
hikey=F#4
hivel=42
lokey=F4
lovel=0
pitch_keycenter=F4
sample=Trumpet_muted_staccatissimo_PP_F4_RR2.opus
</region>

<region>
hikey=F#5
hivel=42
lokey=F5
lovel=0
pitch_keycenter=F5
sample=Trumpet_muted_staccatissimo_PP_F5_RR2.opus
</region>

<region>
hikey=A3
hivel=42
lokey=G#3
lovel=0
offset=893
pitch_keycenter=G#3
sample=Trumpet_muted_staccatissimo_PP_G#3_RR2.opus
</region>

<region>
hikey=G#4
hivel=42
lokey=G4
lovel=0
pitch_keycenter=G4
sample=Trumpet_muted_staccatissimo_PP_G4_RR2.opus
</region>

<region>
hikey=G#5
hivel=42
lokey=G5
lovel=0
offset=1776
pitch_keycenter=G5
sample=Trumpet_muted_staccatissimo_PP_G5_RR2.opus
</region>
</group>

<group>
group_label=RR3
seq_length=4
seq_position=3

<region>
hikey=B3
hivel=127
lokey=A#3
lovel=87
offset=1253
pitch_keycenter=A#3
sample=Trumpet_muted_staccatissimo_FF_A#3_RR3.opus
</region>

<region>
hikey=B4
hivel=127
lokey=A#4
lovel=87
offset=3545
pitch_keycenter=A#4
sample=Trumpet_muted_staccatissimo_FF_A#4_RR3.opus
</region>

<region>
hikey=B5
hivel=127
lokey=A#5
lovel=87
pitch_keycenter=A#5
sample=Trumpet_muted_staccatissimo_FF_A#5_RR3.opus
</region>

<region>
hivel=127
key=A4
lovel=87
offset=2829
sample=Trumpet_muted_staccatissimo_FF_A4_RR3.opus
</region>

<region>
hivel=127
key=A5
lovel=87
offset=2421
sample=Trumpet_muted_staccatissimo_FF_A5_RR3.opus
</region>

<region>
hikey=C#4
hivel=127
lokey=C4
lovel=87
offset=1151
sample=Trumpet_muted_staccatissimo_FF_C4_RR3.opus
</region>

<region>
hikey=C#5
hivel=127
lokey=C5
lovel=87
offset=2760
pitch_keycenter=C5
sample=Trumpet_muted_staccatissimo_FF_C5_RR3.opus
</region>

<region>
hikey=F6
hivel=127
lokey=C6
lovel=87
pitch_keycenter=C6
sample=Trumpet_muted_staccatissimo_FF_C6_RR3.opus
</region>

<region>
hikey=D#4
hivel=127
lokey=D4
lovel=87
offset=3861
pitch_keycenter=D4
sample=Trumpet_muted_staccatissimo_FF_D4_RR3.opus
</region>

<region>
hikey=D#5
hivel=127
lokey=D5
lovel=87
offset=1962
pitch_keycenter=D5
sample=Trumpet_muted_staccatissimo_FF_D5_RR3.opus
</region>

<region>
hivel=127
key=E4
lovel=87
offset=2273
sample=Trumpet_muted_staccatissimo_FF_E4_RR3.opus
</region>

<region>
hivel=127
key=E5
lovel=87
sample=Trumpet_muted_staccatissimo_FF_E5_RR3.opus
</region>

<region>
hikey=F#4
hivel=127
lokey=F4
lovel=87
offset=2052
pitch_keycenter=F4
sample=Trumpet_muted_staccatissimo_FF_F4_RR3.opus
</region>

<region>
hikey=F#5
hivel=127
lokey=F5
lovel=87
pitch_keycenter=F5
sample=Trumpet_muted_staccatissimo_FF_F5_RR3.opus
</region>

<region>
hikey=A3
hivel=127
lokey=G#3
lovel=87
offset=704
pitch_keycenter=G#3
sample=Trumpet_muted_staccatissimo_FF_G#3_RR3.opus
</region>

<region>
hikey=G#4
hivel=127
lokey=G4
lovel=87
offset=2902
pitch_keycenter=G4
sample=Trumpet_muted_staccatissimo_FF_G4_RR3.opus
</region>

<region>
hikey=G#5
hivel=127
lokey=G5
lovel=87
pitch_keycenter=G5
sample=Trumpet_muted_staccatissimo_FF_G5_RR3.opus
</region>

<region>
hikey=B3
hivel=86
lokey=A#3
lovel=43
pitch_keycenter=A#3
sample=Trumpet_muted_staccatissimo_MF_A#3_RR3.opus
</region>

<region>
hikey=B4
hivel=86
lokey=A#4
lovel=43
offset=4155
pitch_keycenter=A#4
sample=Trumpet_muted_staccatissimo_MF_A#4_RR3.opus
</region>

<region>
hikey=B5
hivel=86
lokey=A#5
lovel=43
offset=2147
pitch_keycenter=A#5
sample=Trumpet_muted_staccatissimo_MF_A#5_RR3.opus
</region>

<region>
hivel=86
key=A4
lovel=43
offset=2943
sample=Trumpet_muted_staccatissimo_MF_A4_RR3.opus
</region>

<region>
hivel=86
key=A5
lovel=43
offset=4630
sample=Trumpet_muted_staccatissimo_MF_A5_RR3.opus
</region>

<region>
hikey=C#4
hivel=86
lokey=C4
lovel=43
offset=784
sample=Trumpet_muted_staccatissimo_MF_C4_RR3.opus
</region>

<region>
hikey=C#5
hivel=86
lokey=C5
lovel=43
offset=3792
pitch_keycenter=C5
sample=Trumpet_muted_staccatissimo_MF_C5_RR3.opus
</region>

<region>
hikey=F6
hivel=86
lokey=C6
lovel=43
offset=2119
pitch_keycenter=C6
sample=Trumpet_muted_staccatissimo_MF_C6_RR3.opus
</region>

<region>
hikey=D#4
hivel=86
lokey=D4
lovel=43
offset=3225
pitch_keycenter=D4
sample=Trumpet_muted_staccatissimo_MF_D4_RR3.opus
</region>

<region>
hikey=D#5
hivel=86
lokey=D5
lovel=43
offset=3258
pitch_keycenter=D5
sample=Trumpet_muted_staccatissimo_MF_D5_RR3.opus
</region>

<region>
hivel=86
key=E4
lovel=43
offset=3458
sample=Trumpet_muted_staccatissimo_MF_E4_RR3.opus
</region>

<region>
hivel=86
key=E5
lovel=43
offset=3243
sample=Trumpet_muted_staccatissimo_MF_E5_RR3.opus
</region>

<region>
hikey=F#4
hivel=86
lokey=F4
lovel=43
offset=1302
pitch_keycenter=F4
sample=Trumpet_muted_staccatissimo_MF_F4_RR3.opus
</region>

<region>
hikey=F#5
hivel=86
lokey=F5
lovel=43
offset=2594
pitch_keycenter=F5
sample=Trumpet_muted_staccatissimo_MF_F5_RR3.opus
</region>

<region>
hikey=A3
hivel=86
lokey=G#3
lovel=43
offset=389
pitch_keycenter=G#3
sample=Trumpet_muted_staccatissimo_MF_G#3_RR3.opus
</region>

<region>
hikey=G#4
hivel=86
lokey=G4
lovel=43
offset=2227
pitch_keycenter=G4
sample=Trumpet_muted_staccatissimo_MF_G4_RR3.opus
</region>

<region>
hikey=G#5
hivel=86
lokey=G5
lovel=43
offset=1746
pitch_keycenter=G5
sample=Trumpet_muted_staccatissimo_MF_G5_RR3.opus
</region>

<region>
hikey=B3
hivel=42
lokey=A#3
lovel=0
offset=1520
pitch_keycenter=A#3
sample=Trumpet_muted_staccatissimo_PP_A#3_RR3.opus
</region>

<region>
hikey=B4
hivel=42
lokey=A#4
lovel=0
pitch_keycenter=A#4
sample=Trumpet_muted_staccatissimo_PP_A#4_RR3.opus
</region>

<region>
hikey=B5
hivel=42
lokey=A#5
lovel=0
offset=2384
pitch_keycenter=A#5
sample=Trumpet_muted_staccatissimo_PP_A#5_RR3.opus
</region>

<region>
hivel=42
key=A4
lovel=0
sample=Trumpet_muted_staccatissimo_PP_A4_RR3.opus
</region>

<region>
hivel=42
key=A5
lovel=0
sample=Trumpet_muted_staccatissimo_PP_A5_RR3.opus
</region>

<region>
hikey=C#4
hivel=42
lokey=C4
lovel=0
offset=3025
sample=Trumpet_muted_staccatissimo_PP_C4_RR3.opus
</region>

<region>
hikey=C#5
hivel=42
lokey=C5
lovel=0
pitch_keycenter=C5
sample=Trumpet_muted_staccatissimo_PP_C5_RR3.opus
</region>

<region>
hikey=F6
hivel=42
lokey=C6
lovel=0
offset=1798
pitch_keycenter=C6
sample=Trumpet_muted_staccatissimo_PP_C6_RR3.opus
</region>

<region>
hikey=D#4
hivel=42
lokey=D4
lovel=0
offset=28
pitch_keycenter=D4
sample=Trumpet_muted_staccatissimo_PP_D4_RR3.opus
</region>

<region>
hikey=D#5
hivel=42
lokey=D5
lovel=0
offset=493
pitch_keycenter=D5
sample=Trumpet_muted_staccatissimo_PP_D5_RR3.opus
</region>

<region>
hivel=42
key=E4
lovel=0
offset=1365
sample=Trumpet_muted_staccatissimo_PP_E4_RR3.opus
</region>

<region>
hivel=42
key=E5
lovel=0
sample=Trumpet_muted_staccatissimo_PP_E5_RR3.opus
</region>

<region>
hikey=F#4
hivel=42
lokey=F4
lovel=0
pitch_keycenter=F4
sample=Trumpet_muted_staccatissimo_PP_F4_RR3.opus
</region>

<region>
hikey=F#5
hivel=42
lokey=F5
lovel=0
pitch_keycenter=F5
sample=Trumpet_muted_staccatissimo_PP_F5_RR3.opus
</region>

<region>
hikey=A3
hivel=42
lokey=G#3
lovel=0
offset=728
pitch_keycenter=G#3
sample=Trumpet_muted_staccatissimo_PP_G#3_RR3.opus
</region>

<region>
hikey=G#4
hivel=42
lokey=G4
lovel=0
offset=640
pitch_keycenter=G4
sample=Trumpet_muted_staccatissimo_PP_G4_RR3.opus
</region>

<region>
hikey=G#5
hivel=42
lokey=G5
lovel=0
offset=3403
pitch_keycenter=G5
sample=Trumpet_muted_staccatissimo_PP_G5_RR3.opus
</region>
</group>

<group>
group_label=RR4
seq_length=4
seq_position=4

<region>
hikey=B3
hivel=127
lokey=A#3
lovel=87
offset=2206
pitch_keycenter=A#3
sample=Trumpet_muted_staccatissimo_FF_A#3_RR4.opus
</region>

<region>
hikey=B4
hivel=127
lokey=A#4
lovel=87
offset=3024
pitch_keycenter=A#4
sample=Trumpet_muted_staccatissimo_FF_A#4_RR4.opus
</region>

<region>
hikey=B5
hivel=127
lokey=A#5
lovel=87
pitch_keycenter=A#5
sample=Trumpet_muted_staccatissimo_FF_A#5_RR4.opus
</region>

<region>
hivel=127
key=A4
lovel=87
offset=2937
sample=Trumpet_muted_staccatissimo_FF_A4_RR4.opus
</region>

<region>
hivel=127
key=A5
lovel=87
sample=Trumpet_muted_staccatissimo_FF_A5_RR4.opus
</region>

<region>
hikey=C#4
hivel=127
lokey=C4
lovel=87
offset=2197
sample=Trumpet_muted_staccatissimo_FF_C4_RR4.opus
</region>

<region>
hikey=C#5
hivel=127
lokey=C5
lovel=87
pitch_keycenter=C5
sample=Trumpet_muted_staccatissimo_FF_C5_RR4.opus
</region>

<region>
hikey=F6
hivel=127
lokey=C6
lovel=87
pitch_keycenter=C6
sample=Trumpet_muted_staccatissimo_FF_C6_RR4.opus
</region>

<region>
hikey=D#4
hivel=127
lokey=D4
lovel=87
offset=3142
pitch_keycenter=D4
sample=Trumpet_muted_staccatissimo_FF_D4_RR4.opus
</region>

<region>
hikey=D#5
hivel=127
lokey=D5
lovel=87
offset=2785
pitch_keycenter=D5
sample=Trumpet_muted_staccatissimo_FF_D5_RR4.opus
</region>

<region>
hivel=127
key=E4
lovel=87
offset=2884
sample=Trumpet_muted_staccatissimo_FF_E4_RR4.opus
</region>

<region>
hivel=127
key=E5
lovel=87
sample=Trumpet_muted_staccatissimo_FF_E5_RR4.opus
</region>

<region>
hikey=F#4
hivel=127
lokey=F4
lovel=87
offset=1686
pitch_keycenter=F4
sample=Trumpet_muted_staccatissimo_FF_F4_RR4.opus
</region>

<region>
hikey=F#5
hivel=127
lokey=F5
lovel=87
offset=1996
pitch_keycenter=F5
sample=Trumpet_muted_staccatissimo_FF_F5_RR4.opus
</region>

<region>
hikey=A3
hivel=127
lokey=G#3
lovel=87
offset=1625
pitch_keycenter=G#3
sample=Trumpet_muted_staccatissimo_FF_G#3_RR4.opus
</region>

<region>
hikey=G#4
hivel=127
lokey=G4
lovel=87
offset=3046
pitch_keycenter=G4
sample=Trumpet_muted_staccatissimo_FF_G4_RR4.opus
</region>

<region>
hikey=G#5
hivel=127
lokey=G5
lovel=87
pitch_keycenter=G5
sample=Trumpet_muted_staccatissimo_FF_G5_RR4.opus
</region>

<region>
hikey=B3
hivel=86
lokey=A#3
lovel=43
offset=1161
pitch_keycenter=A#3
sample=Trumpet_muted_staccatissimo_MF_A#3_RR4.opus
</region>

<region>
hikey=B4
hivel=86
lokey=A#4
lovel=43
offset=2693
pitch_keycenter=A#4
sample=Trumpet_muted_staccatissimo_MF_A#4_RR4.opus
</region>

<region>
hikey=B5
hivel=86
lokey=A#5
lovel=43
offset=3102
pitch_keycenter=A#5
sample=Trumpet_muted_staccatissimo_MF_A#5_RR4.opus
</region>

<region>
hivel=86
key=A4
lovel=43
offset=3306
sample=Trumpet_muted_staccatissimo_MF_A4_RR4.opus
</region>

<region>
hivel=86
key=A5
lovel=43
offset=3588
sample=Trumpet_muted_staccatissimo_MF_A5_RR4.opus
</region>

<region>
hikey=C#4
hivel=86
lokey=C4
lovel=43
offset=2767
sample=Trumpet_muted_staccatissimo_MF_C4_RR4.opus
</region>

<region>
hikey=C#5
hivel=86
lokey=C5
lovel=43
offset=3175
pitch_keycenter=C5
sample=Trumpet_muted_staccatissimo_MF_C5_RR4.opus
</region>

<region>
hikey=F6
hivel=86
lokey=C6
lovel=43
pitch_keycenter=C6
sample=Trumpet_muted_staccatissimo_MF_C6_RR4.opus
</region>

<region>
hikey=D#4
hivel=86
lokey=D4
lovel=43
offset=3728
pitch_keycenter=D4
sample=Trumpet_muted_staccatissimo_MF_D4_RR4.opus
</region>

<region>
hikey=D#5
hivel=86
lokey=D5
lovel=43
offset=4210
pitch_keycenter=D5
sample=Trumpet_muted_staccatissimo_MF_D5_RR4.opus
</region>

<region>
hivel=86
key=E4
lovel=43
offset=2026
sample=Trumpet_muted_staccatissimo_MF_E4_RR4.opus
</region>

<region>
hivel=86
key=E5
lovel=43
offset=2200
sample=Trumpet_muted_staccatissimo_MF_E5_RR4.opus
</region>

<region>
hikey=F#4
hivel=86
lokey=F4
lovel=43
offset=3102
pitch_keycenter=F4
sample=Trumpet_muted_staccatissimo_MF_F4_RR4.opus
</region>

<region>
hikey=F#5
hivel=86
lokey=F5
lovel=43
offset=2843
pitch_keycenter=F5
sample=Trumpet_muted_staccatissimo_MF_F5_RR4.opus
</region>

<region>
hikey=A3
hivel=86
lokey=G#3
lovel=43
offset=1300
pitch_keycenter=G#3
sample=Trumpet_muted_staccatissimo_MF_G#3_RR4.opus
</region>

<region>
hikey=G#4
hivel=86
lokey=G4
lovel=43
offset=2794
pitch_keycenter=G4
sample=Trumpet_muted_staccatissimo_MF_G4_RR4.opus
</region>

<region>
hikey=G#5
hivel=86
lokey=G5
lovel=43
offset=1561
pitch_keycenter=G5
sample=Trumpet_muted_staccatissimo_MF_G5_RR4.opus
</region>

<region>
hikey=B3
hivel=42
lokey=A#3
lovel=0
offset=2393
pitch_keycenter=A#3
sample=Trumpet_muted_staccatissimo_PP_A#3_RR4.opus
</region>

<region>
hikey=B4
hivel=42
lokey=A#4
lovel=0
pitch_keycenter=A#4
sample=Trumpet_muted_staccatissimo_PP_A#4_RR4.opus
</region>

<region>
hikey=B5
hivel=42
lokey=A#5
lovel=0
pitch_keycenter=A#5
sample=Trumpet_muted_staccatissimo_PP_A#5_RR4.opus
</region>

<region>
hivel=42
key=A4
lovel=0
offset=82
sample=Trumpet_muted_staccatissimo_PP_A4_RR4.opus
</region>

<region>
hivel=42
key=A5
lovel=0
offset=3738
sample=Trumpet_muted_staccatissimo_PP_A5_RR4.opus
</region>

<region>
hikey=C#4
hivel=42
lokey=C4
lovel=0
sample=Trumpet_muted_staccatissimo_PP_C4_RR4.opus
</region>

<region>
hikey=C#5
hivel=42
lokey=C5
lovel=0
pitch_keycenter=C5
sample=Trumpet_muted_staccatissimo_PP_C5_RR4.opus
</region>

<region>
hikey=F6
hivel=42
lokey=C6
lovel=0
offset=280
pitch_keycenter=C6
sample=Trumpet_muted_staccatissimo_PP_C6_RR4.opus
</region>

<region>
hikey=D#4
hivel=42
lokey=D4
lovel=0
offset=2581
pitch_keycenter=D4
sample=Trumpet_muted_staccatissimo_PP_D4_RR4.opus
</region>

<region>
hikey=D#5
hivel=42
lokey=D5
lovel=0
offset=1766
pitch_keycenter=D5
sample=Trumpet_muted_staccatissimo_PP_D5_RR4.opus
</region>

<region>
hivel=42
key=E4
lovel=0
sample=Trumpet_muted_staccatissimo_PP_E4_RR4.opus
</region>

<region>
hivel=42
key=E5
lovel=0
offset=1052
sample=Trumpet_muted_staccatissimo_PP_E5_RR4.opus
</region>

<region>
hikey=F#4
hivel=42
lokey=F4
lovel=0
offset=3650
pitch_keycenter=F4
sample=Trumpet_muted_staccatissimo_PP_F4_RR4.opus
</region>

<region>
hikey=F#5
hivel=42
lokey=F5
lovel=0
pitch_keycenter=F5
sample=Trumpet_muted_staccatissimo_PP_F5_RR4.opus
</region>

<region>
hikey=A3
hivel=42
lokey=G#3
lovel=0
offset=1791
pitch_keycenter=G#3
sample=Trumpet_muted_staccatissimo_PP_G#3_RR4.opus
</region>

<region>
hikey=G#4
hivel=42
lokey=G4
lovel=0
offset=567
pitch_keycenter=G4
sample=Trumpet_muted_staccatissimo_PP_G4_RR4.opus
</region>

<region>
hikey=G#5
hivel=42
lokey=G5
lovel=0
offset=1090
pitch_keycenter=G5
sample=Trumpet_muted_staccatissimo_PP_G5_RR4.opus
</region>
</group>